<?xml version="1.0" standalone="no"?>
<!DOCTYPE svg PUBLIC "-//W3C//DTD SVG 20010904//EN"
 "http://www.w3.org/TR/2001/REC-SVG-20010904/DTD/svg10.dtd">
<svg version="1.0" xmlns="http://www.w3.org/2000/svg"
 width="512.000000pt" height="512.000000pt" viewBox="0 0 512.000000 512.000000"
 preserveAspectRatio="xMidYMid meet">

<g transform="translate(0.000000,512.000000) scale(0.100000,-0.100000)"
fill="#ffffff" stroke="none">
<path d="M2198 5105 c-214 -34 -415 -135 -562 -281 -196 -196 -308 -469 -347
-843 -15 -145 -6 -509 16 -651 95 -616 379 -1092 830 -1391 131 -87 309 -169
366 -169 38 0 204 68 312 127 503 277 823 723 933 1300 36 188 45 549 19 754
-81 642 -401 1035 -929 1145 -102 22 -522 27 -638 9z m607 -204 c512 -106 780
-542 779 -1271 -1 -323 -45 -552 -156 -804 -82 -186 -180 -329 -327 -477 -148
-149 -307 -256 -501 -340 l-94 -40 -45 17 c-69 25 -181 88 -268 151 -223 159
-384 353 -508 608 -157 323 -229 724 -204 1138 21 364 117 625 294 801 119
119 249 183 470 229 11 3 121 5 245 6 183 1 242 -3 315 -18z"/>
<path d="M1440 2202 c-47 -6 -255 -74 -376 -122 -426 -170 -781 -417 -977
-678 l-47 -64 0 -636 c0 -588 2 -639 18 -658 9 -12 27 -27 39 -33 31 -16 4895
-16 4926 0 12 6 30 21 39 33 16 19 18 70 18 658 l0 636 -47 63 c-111 148 -315
324 -523 454 -257 159 -788 369 -886 350 -43 -8 -74 -47 -74 -94 1 -63 19 -74
230 -144 217 -72 330 -119 500 -209 213 -112 433 -279 548 -417 l52 -63 0
-539 0 -539 -2320 0 -2320 0 0 539 0 539 52 63 c29 34 93 98 143 141 232 203
540 368 913 488 180 58 206 76 204 136 -3 66 -49 105 -112 96z"/>
</g>
</svg>
